<?xml version="1.0" encoding="UTF-8"?><svg xmlns="http://www.w3.org/2000/svg" viewBox="0 0 24 24" width="120" height="120">
<svg:rect xmlns:svg="http://www.w3.org/2000/svg" width="24" height="24" style="fill:rgb(255,255,255)"/>
<g transform="matrix(1, 0, 0, 1, 27.009001, -39.238998)">
<path fill="#4285F4" d="M -3.264 51.509 C -3.264 50.719 -3.334 49.969 -3.454 49.239 L -14.754 49.239 L -14.754 53.749 L -8.284 53.749 C -8.574 55.229 -9.424 56.479 -10.684 57.329 L -10.684 60.329 L -6.824 60.329 C -4.564 58.239 -3.264 55.159 -3.264 51.509 Z"/>
<path fill="#34A853" d="M -14.754 63.239 C -11.514 63.239 -8.804 62.159 -6.824 60.329 L -10.684 57.329 C -11.764 58.049 -13.134 58.489 -14.754 58.489 C -17.884 58.489 -20.534 56.379 -21.484 53.529 L -25.464 53.529 L -25.464 56.619 C -23.494 60.539 -19.444 63.239 -14.754 63.239 Z"/>
<path fill="#FBBC05" d="M -21.484 53.529 C -21.734 52.809 -21.864 52.039 -21.864 51.239 C -21.864 50.439 -21.724 49.669 -21.484 48.949 L -21.484 45.859 L -25.464 45.859 C -26.284 47.479 -26.754 49.299 -26.754 51.239 C -26.754 53.179 -26.284 54.999 -25.464 56.619 L -21.484 53.529 Z"/>
<path fill="#EA4335" d="M -14.754 43.989 C -12.984 43.989 -11.404 44.599 -10.154 45.789 L -6.734 42.369 C -8.804 40.429 -11.514 39.239 -14.754 39.239 C -19.444 39.239 -23.494 41.939 -25.464 45.859 L -21.484 48.949 C -20.534 46.099 -17.884 43.989 -14.754 43.989 Z"/>
</g>
<svg:g xmlns:svg="http://www.w3.org/2000/svg" transform="matrix(1, 0, 0, 1, 22.0, 0.0)">
<svg:path fill="#303030" d="M 0.0 0.0 L 0.5 0.0 L 0.5 0.5 L 0.0 0.5 Z"/>
</svg:g>
<svg:g xmlns:svg="http://www.w3.org/2000/svg" transform="matrix(1, 0, 0, 1, 8.0, 5.0)">
<svg:path fill="#303030" d="M 0.0 0.0 L 0.5 0.0 L 0.5 0.5 L 0.0 0.5 Z"/>
</svg:g>
<svg:g xmlns:svg="http://www.w3.org/2000/svg" transform="matrix(1, 0, 0, 1, 18.0, 19.0)">
<svg:path fill="#303030" d="M 0.0 0.0 L 0.5 0.0 L 0.5 0.5 L 0.0 0.5 Z"/>
</svg:g>
<svg:g xmlns:svg="http://www.w3.org/2000/svg" transform="matrix(1, 0, 0, 1, 6.0, 22.0)">
<svg:path fill="#303030" d="M 0.0 0.0 L 0.5 0.0 L 0.5 0.5 L 0.0 0.5 Z"/>
</svg:g>
<svg:g xmlns:svg="http://www.w3.org/2000/svg" transform="matrix(1, 0, 0, 1, 5.0, 11.0)">
<svg:path fill="#303030" d="M 0.0 0.0 L 0.5 0.0 L 0.5 0.5 L 0.0 0.5 Z"/>
</svg:g>
<svg:g xmlns:svg="http://www.w3.org/2000/svg" transform="matrix(1, 0, 0, 1, 3.0, 15.0)">
<svg:path fill="#303030" d="M 0.0 0.0 L 0.5 0.0 L 0.5 0.5 L 0.0 0.5 Z"/>
</svg:g>
<svg:g xmlns:svg="http://www.w3.org/2000/svg" transform="matrix(1, 0, 0, 1, 16.0, 10.0)">
<svg:path fill="#303030" d="M 0.0 0.0 L 0.5 0.0 L 0.5 0.5 L 0.0 0.5 Z"/>
</svg:g>
<svg:g xmlns:svg="http://www.w3.org/2000/svg" transform="matrix(1, 0, 0, 1, 14.0, 11.0)">
<svg:path fill="#303030" d="M 0.0 0.0 L 0.5 0.0 L 0.5 0.5 L 0.0 0.5 Z"/>
</svg:g>
<svg:g xmlns:svg="http://www.w3.org/2000/svg" transform="matrix(1, 0, 0, 1, 9.0, 9.0)">
<svg:path fill="#303030" d="M 0.0 0.0 L 0.5 0.0 L 0.5 0.5 L 0.0 0.5 Z"/>
</svg:g>
<svg:g xmlns:svg="http://www.w3.org/2000/svg" transform="matrix(1, 0, 0, 1, 16.0, 10.0)">
<svg:path fill="#303030" d="M 0.0 0.0 L 0.5 0.0 L 0.5 0.5 L 0.0 0.5 Z"/>
</svg:g>
<svg:g xmlns:svg="http://www.w3.org/2000/svg" transform="matrix(1, 0, 0, 1, 15.0, 21.0)">
<svg:path fill="#303030" d="M 0.0 0.0 L 0.5 0.0 L 0.5 0.5 L 0.0 0.5 Z"/>
</svg:g>
<svg:g xmlns:svg="http://www.w3.org/2000/svg" transform="matrix(1, 0, 0, 1, 6.0, 7.0)">
<svg:path fill="#303030" d="M 0.0 0.0 L 0.5 0.0 L 0.5 0.5 L 0.0 0.5 Z"/>
</svg:g>
<svg:g xmlns:svg="http://www.w3.org/2000/svg" transform="matrix(1, 0, 0, 1, 7.0, 4.0)">
<svg:path fill="#303030" d="M 0.0 0.0 L 0.5 0.0 L 0.5 0.5 L 0.0 0.5 Z"/>
</svg:g>
<svg:g xmlns:svg="http://www.w3.org/2000/svg" transform="matrix(1, 0, 0, 1, 17.0, 5.0)">
<svg:path fill="#303030" d="M 0.0 0.0 L 0.5 0.0 L 0.5 0.5 L 0.0 0.5 Z"/>
</svg:g>
<svg:g xmlns:svg="http://www.w3.org/2000/svg" transform="matrix(1, 0, 0, 1, 20.0, 4.0)">
<svg:path fill="#303030" d="M 0.0 0.0 L 0.5 0.0 L 0.5 0.5 L 0.0 0.5 Z"/>
</svg:g>
<svg:g xmlns:svg="http://www.w3.org/2000/svg" transform="matrix(1, 0, 0, 1, 10.0, 12.0)">
<svg:path fill="#303030" d="M 0.0 0.0 L 0.5 0.0 L 0.5 0.5 L 0.0 0.5 Z"/>
</svg:g>
<svg:g xmlns:svg="http://www.w3.org/2000/svg" transform="matrix(1, 0, 0, 1, 5.0, 5.0)">
<svg:path fill="#303030" d="M 0.0 0.0 L 0.5 0.0 L 0.5 0.5 L 0.0 0.5 Z"/>
</svg:g>
<svg:g xmlns:svg="http://www.w3.org/2000/svg" transform="matrix(1, 0, 0, 1, 18.0, 15.0)">
<svg:path fill="#303030" d="M 0.0 0.0 L 0.5 0.0 L 0.5 0.5 L 0.0 0.5 Z"/>
</svg:g>
<svg:g xmlns:svg="http://www.w3.org/2000/svg" transform="matrix(1, 0, 0, 1, 11.0, 21.0)">
<svg:path fill="#303030" d="M 0.0 0.0 L 0.5 0.0 L 0.5 0.5 L 0.0 0.5 Z"/>
</svg:g>
<svg:g xmlns:svg="http://www.w3.org/2000/svg" transform="matrix(1, 0, 0, 1, 18.0, 18.0)">
<svg:path fill="#303030" d="M 0.0 0.0 L 0.5 0.0 L 0.5 0.5 L 0.0 0.5 Z"/>
</svg:g>
<svg:g xmlns:svg="http://www.w3.org/2000/svg" transform="matrix(1, 0, 0, 1, 4.0, 21.0)">
<svg:path fill="#303030" d="M 0.0 0.0 L 0.5 0.0 L 0.5 0.5 L 0.0 0.5 Z"/>
</svg:g>
<svg:g xmlns:svg="http://www.w3.org/2000/svg" transform="matrix(1, 0, 0, 1, 7.0, 4.0)">
<svg:path fill="#303030" d="M 0.0 0.0 L 0.5 0.0 L 0.5 0.5 L 0.0 0.5 Z"/>
</svg:g>
<svg:g xmlns:svg="http://www.w3.org/2000/svg" transform="matrix(1, 0, 0, 1, 16.0, 1.0)">
<svg:path fill="#303030" d="M 0.0 0.0 L 0.5 0.0 L 0.5 0.5 L 0.0 0.5 Z"/>
</svg:g>
<svg:g xmlns:svg="http://www.w3.org/2000/svg" transform="matrix(1, 0, 0, 1, 13.0, 1.0)">
<svg:path fill="#303030" d="M 0.0 0.0 L 0.5 0.0 L 0.5 0.5 L 0.0 0.5 Z"/>
</svg:g>
<svg:g xmlns:svg="http://www.w3.org/2000/svg" transform="matrix(1, 0, 0, 1, 11.0, 10.0)">
<svg:path fill="#303030" d="M 0.0 0.0 L 0.5 0.0 L 0.5 0.5 L 0.0 0.5 Z"/>
</svg:g>
<svg:g xmlns:svg="http://www.w3.org/2000/svg" transform="matrix(1, 0, 0, 1, 14.0, 3.0)">
<svg:path fill="#303030" d="M 0.0 0.0 L 0.5 0.0 L 0.5 0.5 L 0.0 0.5 Z"/>
</svg:g>
<svg:g xmlns:svg="http://www.w3.org/2000/svg" transform="matrix(1, 0, 0, 1, 0.0, 6.0)">
<svg:path fill="#303030" d="M 0.0 0.0 L 0.5 0.0 L 0.5 0.5 L 0.0 0.5 Z"/>
</svg:g>
<svg:g xmlns:svg="http://www.w3.org/2000/svg" transform="matrix(1, 0, 0, 1, 22.0, 0.0)">
<svg:path fill="#303030" d="M 0.0 0.0 L 0.5 0.0 L 0.5 0.5 L 0.0 0.5 Z"/>
</svg:g>
<svg:g xmlns:svg="http://www.w3.org/2000/svg" transform="matrix(1, 0, 0, 1, 7.0, 14.0)">
<svg:path fill="#303030" d="M 0.0 0.0 L 0.5 0.0 L 0.5 0.5 L 0.0 0.5 Z"/>
</svg:g>
<svg:g xmlns:svg="http://www.w3.org/2000/svg" transform="matrix(1, 0, 0, 1, 9.0, 1.0)">
<svg:path fill="#303030" d="M 0.0 0.0 L 0.5 0.0 L 0.5 0.5 L 0.0 0.5 Z"/>
</svg:g>
<svg:g xmlns:svg="http://www.w3.org/2000/svg" transform="matrix(1, 0, 0, 1, 14.0, 7.0)">
<svg:path fill="#303030" d="M 0.0 0.0 L 0.5 0.0 L 0.5 0.5 L 0.0 0.5 Z"/>
</svg:g>
<svg:g xmlns:svg="http://www.w3.org/2000/svg" transform="matrix(1, 0, 0, 1, 22.0, 7.0)">
<svg:path fill="#303030" d="M 0.0 0.0 L 0.5 0.0 L 0.5 0.5 L 0.0 0.5 Z"/>
</svg:g>
<svg:g xmlns:svg="http://www.w3.org/2000/svg" transform="matrix(1, 0, 0, 1, 16.0, 2.0)">
<svg:path fill="#303030" d="M 0.0 0.0 L 0.5 0.0 L 0.5 0.5 L 0.0 0.5 Z"/>
</svg:g>
<svg:g xmlns:svg="http://www.w3.org/2000/svg" transform="matrix(1, 0, 0, 1, 18.0, 12.0)">
<svg:path fill="#303030" d="M 0.0 0.0 L 0.5 0.0 L 0.5 0.5 L 0.0 0.5 Z"/>
</svg:g>
<svg:g xmlns:svg="http://www.w3.org/2000/svg" transform="matrix(1, 0, 0, 1, 17.0, 15.0)">
<svg:path fill="#303030" d="M 0.0 0.0 L 0.5 0.0 L 0.5 0.5 L 0.0 0.5 Z"/>
</svg:g>
<svg:g xmlns:svg="http://www.w3.org/2000/svg" transform="matrix(1, 0, 0, 1, 22.0, 21.0)">
<svg:path fill="#303030" d="M 0.0 0.0 L 0.5 0.0 L 0.5 0.5 L 0.0 0.5 Z"/>
</svg:g>
<svg:g xmlns:svg="http://www.w3.org/2000/svg" transform="matrix(1, 0, 0, 1, 15.0, 7.0)">
<svg:path fill="#303030" d="M 0.0 0.0 L 0.5 0.0 L 0.5 0.5 L 0.0 0.5 Z"/>
</svg:g>
<svg:g xmlns:svg="http://www.w3.org/2000/svg" transform="matrix(1, 0, 0, 1, 11.0, 5.0)">
<svg:path fill="#303030" d="M 0.0 0.0 L 0.5 0.0 L 0.5 0.5 L 0.0 0.5 Z"/>
</svg:g>
<svg:g xmlns:svg="http://www.w3.org/2000/svg" transform="matrix(1, 0, 0, 1, 2.0, 12.0)">
<svg:path fill="#303030" d="M 0.0 0.0 L 0.5 0.0 L 0.5 0.5 L 0.0 0.5 Z"/>
</svg:g>
<svg:g xmlns:svg="http://www.w3.org/2000/svg" transform="matrix(1, 0, 0, 1, 22.0, 7.0)">
<svg:path fill="#303030" d="M 0.0 0.0 L 0.5 0.0 L 0.5 0.5 L 0.0 0.5 Z"/>
</svg:g>
<svg:g xmlns:svg="http://www.w3.org/2000/svg" transform="matrix(1, 0, 0, 1, 12.0, 21.0)">
<svg:path fill="#303030" d="M 0.0 0.0 L 0.5 0.0 L 0.5 0.5 L 0.0 0.5 Z"/>
</svg:g>
<svg:g xmlns:svg="http://www.w3.org/2000/svg" transform="matrix(1, 0, 0, 1, 1.0, 2.0)">
<svg:path fill="#303030" d="M 0.0 0.0 L 0.5 0.0 L 0.5 0.5 L 0.0 0.5 Z"/>
</svg:g>
<svg:g xmlns:svg="http://www.w3.org/2000/svg" transform="matrix(1, 0, 0, 1, 12.0, 16.0)">
<svg:path fill="#303030" d="M 0.0 0.0 L 0.5 0.0 L 0.5 0.5 L 0.0 0.5 Z"/>
</svg:g>
<svg:g xmlns:svg="http://www.w3.org/2000/svg" transform="matrix(1, 0, 0, 1, 7.0, 6.0)">
<svg:path fill="#303030" d="M 0.0 0.0 L 0.5 0.0 L 0.5 0.5 L 0.0 0.5 Z"/>
</svg:g>
<svg:g xmlns:svg="http://www.w3.org/2000/svg" transform="matrix(1, 0, 0, 1, 20.0, 20.0)">
<svg:path fill="#303030" d="M 0.0 0.0 L 0.5 0.0 L 0.5 0.5 L 0.0 0.5 Z"/>
</svg:g>
<svg:g xmlns:svg="http://www.w3.org/2000/svg" transform="matrix(1, 0, 0, 1, 4.0, 7.0)">
<svg:path fill="#303030" d="M 0.0 0.0 L 0.5 0.0 L 0.5 0.5 L 0.0 0.5 Z"/>
</svg:g>
<svg:g xmlns:svg="http://www.w3.org/2000/svg" transform="matrix(1, 0, 0, 1, 20.0, 20.0)">
<svg:path fill="#303030" d="M 0.0 0.0 L 0.5 0.0 L 0.5 0.5 L 0.0 0.5 Z"/>
</svg:g>
<svg:g xmlns:svg="http://www.w3.org/2000/svg" transform="matrix(1, 0, 0, 1, 10.0, 20.0)">
<svg:path fill="#303030" d="M 0.0 0.0 L 0.5 0.0 L 0.5 0.5 L 0.0 0.5 Z"/>
</svg:g>
<svg:g xmlns:svg="http://www.w3.org/2000/svg" transform="matrix(1, 0, 0, 1, 0.0, 23.0)">
<svg:path fill="#303030" d="M 0.0 0.0 L 0.5 0.0 L 0.5 0.5 L 0.0 0.5 Z"/>
</svg:g>
<svg:g xmlns:svg="http://www.w3.org/2000/svg" transform="matrix(1, 0, 0, 1, 6.0, 1.0)">
<svg:path fill="#303030" d="M 0.0 0.0 L 0.5 0.0 L 0.5 0.5 L 0.0 0.5 Z"/>
</svg:g>
<svg:g xmlns:svg="http://www.w3.org/2000/svg" transform="matrix(1, 0, 0, 1, 0.0, 13.0)">
<svg:path fill="#303030" d="M 0.0 0.0 L 0.5 0.0 L 0.5 0.5 L 0.0 0.5 Z"/>
</svg:g>
<svg:g xmlns:svg="http://www.w3.org/2000/svg" transform="matrix(1, 0, 0, 1, 3.0, 10.0)">
<svg:path fill="#303030" d="M 0.0 0.0 L 0.5 0.0 L 0.5 0.5 L 0.0 0.5 Z"/>
</svg:g>
<svg:g xmlns:svg="http://www.w3.org/2000/svg" transform="matrix(1, 0, 0, 1, 1.0, 2.0)">
<svg:path fill="#303030" d="M 0.0 0.0 L 0.5 0.0 L 0.5 0.5 L 0.0 0.5 Z"/>
</svg:g>
<svg:g xmlns:svg="http://www.w3.org/2000/svg" transform="matrix(1, 0, 0, 1, 21.0, 6.0)">
<svg:path fill="#303030" d="M 0.0 0.0 L 0.5 0.0 L 0.5 0.5 L 0.0 0.5 Z"/>
</svg:g>
<svg:g xmlns:svg="http://www.w3.org/2000/svg" transform="matrix(1, 0, 0, 1, 20.0, 16.0)">
<svg:path fill="#303030" d="M 0.0 0.0 L 0.5 0.0 L 0.5 0.5 L 0.0 0.5 Z"/>
</svg:g>
<svg:g xmlns:svg="http://www.w3.org/2000/svg" transform="matrix(1, 0, 0, 1, 21.0, 9.0)">
<svg:path fill="#303030" d="M 0.0 0.0 L 0.5 0.0 L 0.5 0.5 L 0.0 0.5 Z"/>
</svg:g>
<svg:g xmlns:svg="http://www.w3.org/2000/svg" transform="matrix(1, 0, 0, 1, 15.0, 8.0)">
<svg:path fill="#303030" d="M 0.0 0.0 L 0.5 0.0 L 0.5 0.5 L 0.0 0.5 Z"/>
</svg:g>
<svg:g xmlns:svg="http://www.w3.org/2000/svg" transform="matrix(1, 0, 0, 1, 15.0, 21.0)">
<svg:path fill="#303030" d="M 0.0 0.0 L 0.5 0.0 L 0.5 0.5 L 0.0 0.5 Z"/>
</svg:g>
<svg:g xmlns:svg="http://www.w3.org/2000/svg" transform="matrix(1, 0, 0, 1, 7.0, 9.0)">
<svg:path fill="#303030" d="M 0.0 0.0 L 0.5 0.0 L 0.5 0.5 L 0.0 0.5 Z"/>
</svg:g>
<svg:g xmlns:svg="http://www.w3.org/2000/svg" transform="matrix(1, 0, 0, 1, 19.0, 3.0)">
<svg:path fill="#303030" d="M 0.0 0.0 L 0.5 0.0 L 0.5 0.5 L 0.0 0.5 Z"/>
</svg:g>
<svg:g xmlns:svg="http://www.w3.org/2000/svg" transform="matrix(1, 0, 0, 1, 16.0, 15.0)">
<svg:path fill="#303030" d="M 0.0 0.0 L 0.5 0.0 L 0.5 0.5 L 0.0 0.5 Z"/>
</svg:g>
<svg:g xmlns:svg="http://www.w3.org/2000/svg" transform="matrix(1, 0, 0, 1, 9.0, 6.0)">
<svg:path fill="#303030" d="M 0.0 0.0 L 0.5 0.0 L 0.5 0.5 L 0.0 0.5 Z"/>
</svg:g>
<svg:g xmlns:svg="http://www.w3.org/2000/svg" transform="matrix(1, 0, 0, 1, 20.0, 7.0)">
<svg:path fill="#303030" d="M 0.0 0.0 L 0.5 0.0 L 0.5 0.5 L 0.0 0.5 Z"/>
</svg:g>
<svg:g xmlns:svg="http://www.w3.org/2000/svg" transform="matrix(1, 0, 0, 1, 8.0, 13.0)">
<svg:path fill="#303030" d="M 0.0 0.0 L 0.5 0.0 L 0.5 0.5 L 0.0 0.5 Z"/>
</svg:g>
<svg:g xmlns:svg="http://www.w3.org/2000/svg" transform="matrix(1, 0, 0, 1, 21.0, 7.0)">
<svg:path fill="#303030" d="M 0.0 0.0 L 0.5 0.0 L 0.5 0.5 L 0.0 0.5 Z"/>
</svg:g>
<svg:g xmlns:svg="http://www.w3.org/2000/svg" transform="matrix(1, 0, 0, 1, 4.0, 13.0)">
<svg:path fill="#303030" d="M 0.0 0.0 L 0.5 0.0 L 0.5 0.5 L 0.0 0.5 Z"/>
</svg:g>
<svg:g xmlns:svg="http://www.w3.org/2000/svg" transform="matrix(1, 0, 0, 1, 5.0, 12.0)">
<svg:path fill="#303030" d="M 0.0 0.0 L 0.5 0.0 L 0.5 0.5 L 0.0 0.5 Z"/>
</svg:g>
<svg:g xmlns:svg="http://www.w3.org/2000/svg" transform="matrix(1, 0, 0, 1, 12.0, 20.0)">
<svg:path fill="#303030" d="M 0.0 0.0 L 0.5 0.0 L 0.5 0.5 L 0.0 0.5 Z"/>
</svg:g>
<svg:g xmlns:svg="http://www.w3.org/2000/svg" transform="matrix(1, 0, 0, 1, 0.0, 13.0)">
<svg:path fill="#303030" d="M 0.0 0.0 L 0.5 0.0 L 0.5 0.5 L 0.0 0.5 Z"/>
</svg:g>
<svg:g xmlns:svg="http://www.w3.org/2000/svg" transform="matrix(1, 0, 0, 1, 20.0, 8.0)">
<svg:path fill="#303030" d="M 0.0 0.0 L 0.5 0.0 L 0.5 0.5 L 0.0 0.5 Z"/>
</svg:g>
<svg:g xmlns:svg="http://www.w3.org/2000/svg" transform="matrix(1, 0, 0, 1, 9.0, 16.0)">
<svg:path fill="#303030" d="M 0.0 0.0 L 0.5 0.0 L 0.5 0.5 L 0.0 0.5 Z"/>
</svg:g>
<svg:g xmlns:svg="http://www.w3.org/2000/svg" transform="matrix(1, 0, 0, 1, 4.0, 0.0)">
<svg:path fill="#303030" d="M 0.0 0.0 L 0.5 0.0 L 0.5 0.5 L 0.0 0.5 Z"/>
</svg:g>
<svg:g xmlns:svg="http://www.w3.org/2000/svg" transform="matrix(1, 0, 0, 1, 18.0, 22.0)">
<svg:path fill="#303030" d="M 0.0 0.0 L 0.5 0.0 L 0.5 0.5 L 0.0 0.5 Z"/>
</svg:g>
<svg:g xmlns:svg="http://www.w3.org/2000/svg" transform="matrix(1, 0, 0, 1, 22.0, 2.0)">
<svg:path fill="#303030" d="M 0.0 0.0 L 0.5 0.0 L 0.5 0.5 L 0.0 0.5 Z"/>
</svg:g>
<svg:g xmlns:svg="http://www.w3.org/2000/svg" transform="matrix(1, 0, 0, 1, 22.0, 5.0)">
<svg:path fill="#303030" d="M 0.0 0.0 L 0.5 0.0 L 0.5 0.5 L 0.0 0.5 Z"/>
</svg:g>
<svg:g xmlns:svg="http://www.w3.org/2000/svg" transform="matrix(1, 0, 0, 1, 13.0, 1.0)">
<svg:path fill="#303030" d="M 0.0 0.0 L 0.5 0.0 L 0.5 0.5 L 0.0 0.5 Z"/>
</svg:g>
<svg:g xmlns:svg="http://www.w3.org/2000/svg" transform="matrix(1, 0, 0, 1, 2.0, 6.0)">
<svg:path fill="#303030" d="M 0.0 0.0 L 0.5 0.0 L 0.5 0.5 L 0.0 0.5 Z"/>
</svg:g>
<svg:g xmlns:svg="http://www.w3.org/2000/svg" transform="matrix(1, 0, 0, 1, 14.0, 11.0)">
<svg:path fill="#303030" d="M 0.0 0.0 L 0.5 0.0 L 0.5 0.5 L 0.0 0.5 Z"/>
</svg:g>
<svg:g xmlns:svg="http://www.w3.org/2000/svg" transform="matrix(1, 0, 0, 1, 18.0, 14.0)">
<svg:path fill="#303030" d="M 0.0 0.0 L 0.5 0.0 L 0.5 0.5 L 0.0 0.5 Z"/>
</svg:g>
<svg:g xmlns:svg="http://www.w3.org/2000/svg" transform="matrix(1, 0, 0, 1, 4.0, 13.0)">
<svg:path fill="#303030" d="M 0.0 0.0 L 0.5 0.0 L 0.5 0.5 L 0.0 0.5 Z"/>
</svg:g>
<svg:g xmlns:svg="http://www.w3.org/2000/svg" transform="matrix(1, 0, 0, 1, 16.0, 1.0)">
<svg:path fill="#303030" d="M 0.0 0.0 L 0.5 0.0 L 0.5 0.5 L 0.0 0.5 Z"/>
</svg:g>
<svg:g xmlns:svg="http://www.w3.org/2000/svg" transform="matrix(1, 0, 0, 1, 2.0, 22.0)">
<svg:path fill="#303030" d="M 0.0 0.0 L 0.5 0.0 L 0.5 0.5 L 0.0 0.5 Z"/>
</svg:g>
<svg:g xmlns:svg="http://www.w3.org/2000/svg" transform="matrix(1, 0, 0, 1, 11.0, 0.0)">
<svg:path fill="#303030" d="M 0.0 0.0 L 0.5 0.0 L 0.5 0.5 L 0.0 0.5 Z"/>
</svg:g>
<svg:g xmlns:svg="http://www.w3.org/2000/svg" transform="matrix(1, 0, 0, 1, 5.0, 20.0)">
<svg:path fill="#303030" d="M 0.0 0.0 L 0.5 0.0 L 0.5 0.5 L 0.0 0.5 Z"/>
</svg:g>
<svg:g xmlns:svg="http://www.w3.org/2000/svg" transform="matrix(1, 0, 0, 1, 7.0, 1.0)">
<svg:path fill="#303030" d="M 0.0 0.0 L 0.5 0.0 L 0.5 0.5 L 0.0 0.5 Z"/>
</svg:g>
<svg:g xmlns:svg="http://www.w3.org/2000/svg" transform="matrix(1, 0, 0, 1, 7.0, 8.0)">
<svg:path fill="#303030" d="M 0.0 0.0 L 0.5 0.0 L 0.5 0.5 L 0.0 0.5 Z"/>
</svg:g>
<svg:g xmlns:svg="http://www.w3.org/2000/svg" transform="matrix(1, 0, 0, 1, 15.0, 2.0)">
<svg:path fill="#303030" d="M 0.0 0.0 L 0.5 0.0 L 0.5 0.5 L 0.0 0.5 Z"/>
</svg:g>
<svg:g xmlns:svg="http://www.w3.org/2000/svg" transform="matrix(1, 0, 0, 1, 22.0, 16.0)">
<svg:path fill="#303030" d="M 0.0 0.0 L 0.5 0.0 L 0.5 0.5 L 0.0 0.5 Z"/>
</svg:g>
<svg:g xmlns:svg="http://www.w3.org/2000/svg" transform="matrix(1, 0, 0, 1, 0.0, 14.0)">
<svg:path fill="#303030" d="M 0.0 0.0 L 0.5 0.0 L 0.5 0.5 L 0.0 0.5 Z"/>
</svg:g>
<svg:g xmlns:svg="http://www.w3.org/2000/svg" transform="matrix(1, 0, 0, 1, 6.0, 0.0)">
<svg:path fill="#303030" d="M 0.0 0.0 L 0.5 0.0 L 0.5 0.5 L 0.0 0.5 Z"/>
</svg:g>
<svg:g xmlns:svg="http://www.w3.org/2000/svg" transform="matrix(1, 0, 0, 1, 13.0, 1.0)">
<svg:path fill="#303030" d="M 0.0 0.0 L 0.5 0.0 L 0.5 0.5 L 0.0 0.5 Z"/>
</svg:g>
<svg:g xmlns:svg="http://www.w3.org/2000/svg" transform="matrix(1, 0, 0, 1, 15.0, 20.0)">
<svg:path fill="#303030" d="M 0.0 0.0 L 0.5 0.0 L 0.5 0.5 L 0.0 0.5 Z"/>
</svg:g>
<svg:g xmlns:svg="http://www.w3.org/2000/svg" transform="matrix(1, 0, 0, 1, 19.0, 11.0)">
<svg:path fill="#303030" d="M 0.0 0.0 L 0.5 0.0 L 0.5 0.5 L 0.0 0.5 Z"/>
</svg:g>
<svg:g xmlns:svg="http://www.w3.org/2000/svg" transform="matrix(1, 0, 0, 1, 2.0, 7.0)">
<svg:path fill="#303030" d="M 0.0 0.0 L 0.5 0.0 L 0.5 0.5 L 0.0 0.5 Z"/>
</svg:g>
<svg:g xmlns:svg="http://www.w3.org/2000/svg" transform="matrix(1, 0, 0, 1, 10.0, 12.0)">
<svg:path fill="#303030" d="M 0.0 0.0 L 0.5 0.0 L 0.5 0.5 L 0.0 0.5 Z"/>
</svg:g>
<svg:g xmlns:svg="http://www.w3.org/2000/svg" transform="matrix(1, 0, 0, 1, 0.0, 15.0)">
<svg:path fill="#303030" d="M 0.0 0.0 L 0.5 0.0 L 0.5 0.5 L 0.0 0.5 Z"/>
</svg:g>
<svg:g xmlns:svg="http://www.w3.org/2000/svg" transform="matrix(1, 0, 0, 1, 17.0, 13.0)">
<svg:path fill="#303030" d="M 0.0 0.0 L 0.5 0.0 L 0.5 0.5 L 0.0 0.5 Z"/>
</svg:g>
<svg:g xmlns:svg="http://www.w3.org/2000/svg" transform="matrix(1, 0, 0, 1, 8.0, 12.0)">
<svg:path fill="#303030" d="M 0.0 0.0 L 0.5 0.0 L 0.5 0.5 L 0.0 0.5 Z"/>
</svg:g>
<svg:g xmlns:svg="http://www.w3.org/2000/svg" transform="matrix(1, 0, 0, 1, 0.0, 7.0)">
<svg:path fill="#303030" d="M 0.0 0.0 L 0.5 0.0 L 0.5 0.5 L 0.0 0.5 Z"/>
</svg:g>
<svg:g xmlns:svg="http://www.w3.org/2000/svg" transform="matrix(1, 0, 0, 1, 14.0, 13.0)">
<svg:path fill="#303030" d="M 0.0 0.0 L 0.5 0.0 L 0.5 0.5 L 0.0 0.5 Z"/>
</svg:g>
</svg>
